<svg width="129" height="54" viewBox="0 0 129 54" fill="none" xmlns="http://www.w3.org/2000/svg">
<g filter="url(#filter0_d)">
<path d="M4.00012 0L16.394 17.9452V29.9651H23.9703V17.7255L11.4911 0H4.00012Z" fill="white"/>
<path d="M23.1588 7.80191L26.8829 13.2201L36.4068 0H28.6767L23.1588 7.80191Z" fill="white"/>
<path d="M76.151 0.0422639C70.4367 0.0422639 65.457 3.17824 62.886 7.81036C62.8176 7.9287 57.2314 18.8497 57.2314 18.8497H57.2229C55.805 21.5968 52.9179 23.4734 49.5953 23.4734C44.8547 23.4734 41.0195 19.6696 41.0195 14.9868C41.0195 10.3039 44.8632 6.50018 49.5953 6.50018C51.5171 6.50018 53.2852 7.13414 54.7117 8.19074L58.6237 2.99228C56.104 1.11577 52.9863 0 49.5953 0C41.2331 0 34.4596 6.70305 34.4596 14.9783C34.4596 23.2536 41.2416 29.9566 49.5953 29.9566C55.3096 29.9566 60.2808 26.8207 62.8603 22.1885C62.9287 22.0702 68.5149 11.1492 68.5149 11.1492H68.5234C69.9413 8.40206 72.8284 6.52554 76.151 6.52554C80.8916 6.52554 84.7268 10.3293 84.7268 15.0121C84.7268 19.695 80.8831 23.4987 76.151 23.4987C74.2292 23.4987 72.4611 22.8648 71.0346 21.8082L67.1226 27.0066C69.6424 28.8662 72.7686 29.982 76.151 29.982C84.5132 29.982 91.2867 23.2789 91.2867 15.0037C91.2867 6.72841 84.5132 0.0422639 76.151 0.0422639Z" fill="white"/>
<path d="M76.151 0.0422639C70.4367 0.0422639 65.457 3.17824 62.886 7.81036C62.8176 7.9287 57.2314 18.8497 57.2314 18.8497H57.2229C55.805 21.5968 52.9179 23.4734 49.5953 23.4734C44.8547 23.4734 41.0195 19.6696 41.0195 14.9868C41.0195 10.3039 44.8632 6.50018 49.5953 6.50018C51.5171 6.50018 53.2852 7.13414 54.7117 8.19074L58.6237 2.99228C56.104 1.11577 52.9863 0 49.5953 0C41.2331 0 34.4596 6.70305 34.4596 14.9783C34.4596 23.2536 41.2416 29.9566 49.5953 29.9566C55.3096 29.9566 60.2808 26.8207 62.8603 22.1885C62.9287 22.0702 68.5149 11.1492 68.5149 11.1492H68.5234C69.9413 8.40206 72.8284 6.52554 76.151 6.52554C80.8916 6.52554 84.7268 10.3293 84.7268 15.0121C84.7268 19.695 80.8831 23.4987 76.151 23.4987C74.2292 23.4987 72.4611 22.8648 71.0346 21.8082L67.1226 27.0066C69.6424 28.8662 72.7686 29.982 76.151 29.982C84.5132 29.982 91.2867 23.2789 91.2867 15.0037C91.2867 6.72841 84.5132 0.0422639 76.151 0.0422639Z" fill="white"/>
<path d="M95.5231 0V29.9989H104.295V13.6681L115.408 29.9989H123.77L102.877 0H95.5231Z" fill="white"/>
<path d="M115.331 0V10.9463L123.77 24.0904V0H115.331Z" fill="white"/>
<path d="M85.7174 32.4673C88.0236 32.4673 89.0827 33.2957 89.5952 33.6676L88.3994 35.9667C87.9467 35.6202 87.2975 35.1553 86.0078 35.1553C84.4447 35.1553 83.2061 35.9498 83.2061 37.7503C83.2061 39.6099 84.2995 40.4467 85.8882 40.4467C86.1444 40.4467 86.3921 40.4298 86.6142 40.4044V39.0689H85.1109V36.8458H89.45V42.1119C88.9461 42.4077 87.81 43.177 85.5807 43.177C82.4545 43.177 79.986 41.647 79.986 37.8686C79.986 34.1917 82.7278 32.4673 85.7174 32.4673Z" fill="white"/>
<path d="M96.77 37.7927C96.6932 37.7758 96.5309 37.7504 96.2832 37.7504C95.3607 37.7504 94.7798 38.097 94.4638 38.4858V42.9996H91.4742V35.5104H94.3101V36.6177H94.3442C94.6005 35.9584 95.2069 35.3245 96.77 35.3245V37.7927Z" fill="white"/>
<path d="M101.562 43.1769C99.5035 43.1769 97.5731 42.0189 97.5731 39.2464C97.5731 36.4823 99.495 35.3328 101.562 35.3328C103.621 35.3328 105.551 36.4908 105.551 39.2464C105.551 42.0274 103.629 43.1769 101.562 43.1769ZM101.562 37.6911C101.015 37.6911 100.622 38.0968 100.622 39.2379C100.622 40.3622 101.015 40.7679 101.562 40.7679C102.109 40.7679 102.502 40.3622 102.502 39.2379C102.51 38.0968 102.109 37.6911 101.562 37.6911Z" fill="white"/>
<path d="M114.989 42.9996H112.153V42.2473H112.119C111.829 42.6192 111.257 43.1771 109.89 43.1771C108.378 43.1771 107.225 42.3233 107.225 40.1932V35.5104H110.215V39.6776C110.215 40.413 110.522 40.7258 111.111 40.7258C111.564 40.7258 111.872 40.4891 112.008 40.3031V35.502H114.998V42.9996H114.989Z" fill="white"/>
<path d="M121.848 43.1769C120.712 43.1769 120.26 42.7374 120.012 42.4584H119.978V46.0002H116.988V35.5103H119.824V36.2626H119.858C120.097 35.9329 120.704 35.3328 122.045 35.3328C123.727 35.3328 125 36.6091 125 39.1281C125 41.7231 123.685 43.1769 121.848 43.1769ZM120.875 37.6911C120.362 37.6911 120.089 37.9616 119.978 38.1222V40.3453C120.08 40.4974 120.345 40.7679 120.84 40.7679C121.524 40.7679 121.951 40.2607 121.951 39.221C121.951 38.1983 121.541 37.6911 120.875 37.6911Z" fill="white"/>
</g>
<defs>
<filter id="filter0_d" x="0.00012207" y="0" width="129" height="54.0002" filterUnits="userSpaceOnUse" color-interpolation-filters="sRGB">
<feFlood flood-opacity="0" result="BackgroundImageFix"/>
<feColorMatrix in="SourceAlpha" type="matrix" values="0 0 0 0 0 0 0 0 0 0 0 0 0 0 0 0 0 0 127 0"/>
<feOffset dy="4"/>
<feGaussianBlur stdDeviation="2"/>
<feColorMatrix type="matrix" values="0 0 0 0 0 0 0 0 0 0 0 0 0 0 0 0 0 0 0.25 0"/>
<feBlend mode="normal" in2="BackgroundImageFix" result="effect1_dropShadow"/>
<feBlend mode="normal" in="SourceGraphic" in2="effect1_dropShadow" result="shape"/>
</filter>
</defs>
</svg>
