<svg width="20" height="28" viewBox="0 0 20 28" fill="none" xmlns="http://www.w3.org/2000/svg">
<g clip-path="url(#clip0)">
<path d="M10 0C4.48589 0 0 4.49203 0 10.0132V17.987C0 23.5082 4.48589 28 10 28C15.5138 28 20 23.5219 20 18.0177V10.0132C20 4.49203 15.5138 0 10 0ZM18.1191 18.0177C18.1191 22.4995 14.4771 26.1457 10 26.1457C5.5232 26.1457 1.88091 22.4856 1.88091 17.9868V10.0132C1.88091 5.51436 5.5232 1.85429 10 1.85429C14.4771 1.85429 18.1191 5.51436 18.1191 10.0132V18.0177Z" fill="white"/>
<path d="M10 6C9.44768 6 9 6.48839 9 7.09092V10.9091C9 11.5116 9.44768 12 10 12C10.5523 12 11 11.5116 11 10.9091V7.09092C11 6.48839 10.5523 6 10 6Z" fill="white"/>
</g>
<defs>
<clipPath id="clip0">
<rect width="20" height="28" fill="white"/>
</clipPath>
</defs>
</svg>
